<svg xmlns="http://www.w3.org/2000/svg" x="0px" y="0px"
width="48" height="48"
viewBox="0 0 226 226"
style=" fill:#000000;"><g transform="translate(-33.9,-33.9) scale(1.3,1.3)"><g fill="none" fill-rule="nonzero" stroke="none" stroke-width="1" stroke-linecap="butt" stroke-linejoin="miter" stroke-miterlimit="10" stroke-dasharray="" stroke-dashoffset="0" font-family="none" font-weight="none" font-size="none" text-anchor="none" style="mix-blend-mode: normal"><path d="M0,226v-226h226v226z" fill="#ffffff"></path><g fill="#e74c3c"><path d="M37.66667,18.83333c-10.29301,0 -18.83333,8.54033 -18.83333,18.83333v150.66667c0,10.29301 8.54033,18.83333 18.83333,18.83333h150.53792c10.37864,0 18.97195,-8.70969 18.83333,-19.09082v-0.01839l-2.09668,-150.64827v-0.01839c-0.14892,-10.18235 -8.64413,-18.55745 -18.83333,-18.55745zM37.66667,37.66667h148.44124l2.09668,150.66667h-150.53792zM112.92644,65.91667c-12.48728,0 -24.46311,4.96055 -33.29295,13.79039c-8.82984,8.82984 -13.79039,20.80567 -13.79039,33.29295c0,12.48728 4.96055,24.46311 13.79039,33.29295c8.82984,8.82984 20.80567,13.79039 33.29295,13.79039c26.00341,0 47.08333,-21.07993 47.08333,-47.08333c0,-26.00341 -21.07993,-47.08333 -47.08333,-47.08333z"></path></g></g></g></svg>